<?xml version="1.0" standalone="no"?>
<!DOCTYPE svg PUBLIC "-//W3C//DTD SVG 20010904//EN"
 "http://www.w3.org/TR/2001/REC-SVG-20010904/DTD/svg10.dtd">
 <svg version="1.0" xmlns="http://www.w3.org/2000/svg"
  width="5510.000000pt" height="1582.000000pt" viewBox="0 0 5510.000000 1582.000000"
  preserveAspectRatio="xMidYMid meet">
 
 <g transform="translate(0.000000,1582.000000) scale(0.100000,-0.100000)"
 fill="#007bff" stroke="none">
 <path d="M8075 15804 c-524 -27 -994 -101 -1445 -229 -929 -263 -1735 -730
 -2388 -1385 -1282 -1286 -1808 -3134 -1432 -5031 245 -1237 828 -2387 1707
 -3369 272 -303 682 -686 999 -933 1053 -820 2269 -1348 3524 -1531 1189 -174
 2366 -32 3395 409 726 311 1406 802 1912 1382 1420 1625 1715 3957 777 6150
 -115 268 -275 584 -432 848 -81 136 -269 425 -277 425 -3 0 13 -33 36 -72 78
 -139 227 -454 292 -618 246 -623 359 -1239 344 -1860 -7 -261 -16 -362 -53
 -590 -184 -1140 -842 -2121 -1819 -2712 -525 -317 -1121 -508 -1792 -573 -188
 -18 -609 -21 -803 -5 -992 82 -1964 462 -2796 1095 -214 163 -374 303 -579
 509 -341 342 -596 669 -842 1079 -105 175 -282 533 -358 727 -387 976 -454
 2003 -191 2921 257 893 803 1645 1566 2153 586 391 1271 619 2030 677 199 15
 667 6 855 -16 566 -66 1088 -213 1609 -451 77 -35 136 -60 131 -55 -21 20
 -290 169 -470 261 -856 436 -1745 692 -2685 775 -168 15 -669 27 -815 19z"/>
 <path d="M10225 14559 c-1127 -115 -1972 -889 -2200 -2014 -74 -362 -75 -812
 -4 -1205 61 -340 176 -685 335 -1012 551 -1125 1611 -1970 2753 -2192 223 -44
 409 -59 661 -53 378 9 657 68 990 208 325 137 673 401 899 682 221 274 400
 638 491 998 269 1064 -84 2322 -915 3269 -222 252 -518 515 -788 698 -483 327
 -974 522 -1517 603 -155 23 -556 34 -705 18z"/>
 <path d="M3431 14259 c-1899 -1362 -3115 -3411 -3370 -5679 -38 -333 -46 -489
 -46 -895 0 -420 8 -570 51 -932 185 -1578 855 -3056 1916 -4228 791 -873 1770
 -1550 2868 -1983 716 -282 1471 -451 2300 -514 244 -18 867 -15 1125 6 916 75
 1741 278 2555 628 1654 712 3047 1979 3917 3563 124 225 381 761 370 771 -2 2
 -41 -45 -88 -104 -366 -468 -826 -931 -1297 -1306 -706 -562 -1548 -1016
 -2402 -1294 -617 -201 -1213 -316 -1880 -363 -213 -15 -758 -15 -970 0 -1008
 71 -1939 321 -2805 753 -1031 515 -1907 1247 -2598 2173 -1279 1713 -1739
 3925 -1261 6065 210 938 615 1864 1162 2660 131 191 336 459 468 614 120 139
 150 176 143 176 -2 0 -73 -50 -158 -111z"/>
 <path d="M20378 11930 c-847 -77 -1384 -535 -1562 -1333 -65 -289 -61 -114
 -61 -2782 0 -2670 -4 -2492 61 -2785 193 -867 825 -1340 1789 -1340 1012 0
 1657 523 1814 1472 35 212 41 345 41 971 l0 607 -594 0 -595 0 -4 -687 c-3
 -673 -4 -690 -25 -772 -62 -234 -195 -372 -412 -427 -88 -23 -291 -23 -384 0
 -94 22 -200 80 -261 143 -61 61 -116 166 -148 278 l-22 80 -3 2395 c-3 2512
 -4 2496 40 2640 62 204 201 338 399 385 82 19 282 19 372 0 213 -45 355 -193
 418 -435 22 -82 23 -105 26 -652 l4 -568 596 0 595 0 -5 568 c-5 608 -9 667
 -62 907 -81 362 -222 632 -450 860 -252 254 -566 399 -990 461 -124 18 -448
 26 -577 14z"/>
 <path d="M40065 11930 c-837 -75 -1374 -524 -1558 -1305 -66 -281 -62 -81 -62
 -2810 0 -2326 1 -2477 18 -2585 104 -666 391 -1100 892 -1346 269 -132 550
 -189 935 -189 293 0 498 29 720 101 615 200 995 690 1105 1424 25 167 36 527
 33 1040 l-3 475 -592 3 -593 2 0 -592 c0 -327 -5 -642 -10 -703 -20 -209 -74
 -349 -175 -450 -113 -114 -237 -157 -450 -157 -212 0 -335 43 -451 157 -101
 100 -153 233 -174 446 -16 160 -8 4766 9 4839 80 357 264 510 616 510 324 0
 514 -138 594 -430 33 -119 41 -273 41 -773 l0 -467 593 2 592 3 3 355 c3 402
 -10 775 -33 930 -132 883 -649 1402 -1505 1510 -119 15 -425 20 -545 10z"/>
 <path d="M23210 7815 l0 -4005 605 0 605 0 0 4005 0 4005 -605 0 -605 0 0
 -4005z"/>
 <path d="M49459 10523 l0 -1298 -32 40 c-82 102 -218 231 -308 291 -229 153
 -458 212 -774 201 -643 -24 -1032 -360 -1179 -1018 -64 -285 -61 -200 -61
 -2014 0 -1814 -3 -1729 61 -2014 128 -571 441 -898 954 -997 133 -25 439 -26
 564 -1 412 83 693 308 879 707 l31 65 7 -90 c24 -275 47 -440 76 -532 l17 -53
 553 0 c474 0 553 2 553 14 0 8 -7 48 -15 88 -37 173 -68 428 -97 793 -8 110
 -13 1077 -15 3633 l-4 3482 -604 0 -605 0 -1 -1297z m-455 -1859 c87 -22 152
 -59 219 -123 109 -103 176 -254 214 -477 17 -102 18 -190 18 -1334 0 -957 -3
 -1244 -13 -1310 -36 -234 -102 -391 -212 -501 -107 -107 -219 -149 -401 -149
 -265 0 -410 119 -487 397 l-27 98 -3 1395 c-2 922 0 1426 7 1485 30 253 119
 414 274 490 40 19 99 39 132 44 74 12 201 5 279 -15z"/>
 <path d="M25360 11035 l0 -665 605 0 605 0 0 665 0 665 -605 0 -605 0 0 -665z"/>
 <path d="M29542 9749 c-257 -33 -462 -131 -638 -304 -112 -111 -183 -209 -260
 -362 l-51 -103 -7 123 c-3 67 -9 218 -12 335 l-7 212 -523 0 -524 0 0 -2920 0
 -2920 605 0 605 0 3 2108 c3 2099 3 2107 24 2202 44 198 94 308 185 406 101
 107 227 158 393 158 285 0 441 -170 485 -524 6 -56 10 -807 10 -2217 l0 -2133
 605 0 604 0 4 2088 3 2087 22 110 c60 308 175 481 370 555 78 30 200 43 290
 30 196 -26 317 -148 384 -385 l23 -80 3 -2202 2 -2203 611 0 610 0 -4 2263
 c-4 2478 0 2336 -62 2635 -140 675 -529 1023 -1170 1049 -299 11 -551 -56
 -778 -208 -149 -101 -317 -302 -404 -484 l-36 -77 -48 101 c-64 136 -127 229
 -224 330 -100 104 -174 157 -306 220 -120 57 -220 86 -369 106 -113 16 -316
 18 -418 4z"/>
 <path d="M35640 9749 c-217 -23 -435 -82 -608 -164 -412 -195 -682 -569 -786
 -1087 -34 -167 -46 -299 -46 -499 l0 -169 569 0 569 0 4 198 c5 221 19 301 73
 417 80 175 249 275 466 275 268 0 422 -132 479 -411 26 -126 28 -437 4 -520
 -67 -225 -174 -306 -859 -651 -143 -72 -307 -157 -364 -190 -633 -365 -961
 -762 -1070 -1298 -88 -430 -52 -898 95 -1242 218 -509 707 -773 1312 -708 464
 51 794 276 1003 687 l48 94 5 -43 c3 -24 8 -101 11 -173 7 -151 28 -311 53
 -393 l18 -57 557 -3 c306 -1 557 0 557 2 0 2 -9 47 -20 100 -47 228 -81 544
 -100 925 -6 117 -10 804 -10 1615 0 1665 -6 1819 -76 2133 -152 682 -536 1042
 -1224 1148 -125 19 -533 28 -660 14z m737 -3769 c-4 -534 -5 -582 -24 -670
 -83 -384 -254 -559 -562 -577 -278 -15 -454 107 -528 367 -15 53 -18 101 -18
 255 0 212 12 275 80 421 94 204 215 325 557 555 269 182 417 291 463 339 l30
 31 3 -73 c2 -40 1 -332 -1 -648z"/>
 <path d="M44295 9749 c-306 -33 -597 -132 -813 -276 -107 -71 -265 -222 -348
 -332 -123 -165 -231 -407 -287 -646 -64 -272 -62 -208 -62 -1775 l0 -1425 22
 -141 c67 -416 210 -733 442 -977 240 -251 555 -402 968 -464 165 -24 532 -24
 697 0 402 60 699 199 941 442 208 207 336 444 420 780 71 279 68 224 73 1705
 2 918 0 1376 -8 1465 -45 529 -197 903 -484 1191 -241 240 -526 376 -925 440
 -118 18 -510 27 -636 13z m435 -1081 c184 -43 321 -188 374 -393 33 -131 36
 -236 36 -1550 0 -1313 -3 -1419 -36 -1550 -53 -208 -200 -356 -392 -396 -88
 -18 -293 -7 -371 21 -126 45 -240 160 -291 297 -57 151 -54 70 -58 1568 -2
 1004 0 1406 8 1475 40 326 193 502 470 541 64 9 195 2 260 -13z"/>
 <path d="M53025 9748 c-213 -21 -450 -84 -629 -167 -199 -92 -408 -262 -542
 -441 -124 -165 -231 -407 -287 -645 -65 -274 -62 -198 -62 -1760 0 -1333 1
 -1428 19 -1550 64 -446 214 -776 470 -1030 251 -249 550 -385 981 -447 118
 -16 522 -16 640 0 614 87 1023 359 1263 838 132 263 199 562 209 937 l6 207
 -582 0 -581 0 0 -122 c-1 -336 -57 -528 -194 -656 -111 -103 -223 -142 -417
 -142 -197 0 -324 45 -431 152 -65 66 -117 164 -150 283 -21 77 -22 98 -26 668
 l-3 587 1190 0 1191 0 0 793 c0 494 -4 835 -11 903 -36 365 -140 682 -307 934
 -79 120 -261 300 -388 383 -295 195 -662 289 -1108 286 -89 -1 -201 -6 -251
 -11z m472 -1084 c92 -24 164 -65 229 -130 70 -70 113 -149 146 -269 21 -75 22
 -105 26 -462 l3 -383 -596 0 -597 0 4 378 c4 347 6 383 26 457 70 259 218 393
 467 426 77 10 222 1 292 -17z"/>
 <path d="M25360 6730 l0 -2920 605 0 605 0 0 2920 0 2920 -605 0 -605 0 0
 -2920z"/>
 </g>
 </svg>
